<?xml version="1.0" encoding="UTF-8" standalone="no"?>
<svg
   xmlns:dc="http://purl.org/dc/elements/1.1/"
   xmlns:cc="http://creativecommons.org/ns#"
   xmlns:rdf="http://www.w3.org/1999/02/22-rdf-syntax-ns#"
   xmlns:svg="http://www.w3.org/2000/svg"
   xmlns="http://www.w3.org/2000/svg"
   xmlns:sodipodi="http://sodipodi.sourceforge.net/DTD/sodipodi-0.dtd"
   xmlns:inkscape="http://www.inkscape.org/namespaces/inkscape"
   version="1.1"
   id="svg2"
   viewBox="0 0 49.123241 49.123242"
   height="13.86367mm"
   width="13.86367mm"
   inkscape:version="0.91 r13725"
   sodipodi:docname="favicon.svg"
   inkscape:export-filename="/home/tannewt/code/rcbuild.info/rcbuild.info/static/favicon.png"
   inkscape:export-xdpi="476.35294"
   inkscape:export-ydpi="476.35294">
  <sodipodi:namedview
     pagecolor="#ffffff"
     bordercolor="#666666"
     borderopacity="1"
     objecttolerance="10"
     gridtolerance="10"
     guidetolerance="10"
     inkscape:pageopacity="0"
     inkscape:pageshadow="2"
     inkscape:window-width="2560"
     inkscape:window-height="1353"
     id="namedview4361"
     showgrid="false"
     inkscape:zoom="3.1365299"
     inkscape:cx="66.506393"
     inkscape:cy="24.608325"
     inkscape:window-x="-2"
     inkscape:window-y="-3"
     inkscape:window-maximized="1"
     inkscape:current-layer="text3336"
     fit-margin-top="2.6"
     fit-margin-left="0"
     fit-margin-right="0"
     fit-margin-bottom="2.6" />
  <defs
     id="defs4" />
  <metadata
     id="metadata7">
    <rdf:RDF>
      <cc:Work
         rdf:about="">
        <dc:format>image/svg+xml</dc:format>
        <dc:type
           rdf:resource="http://purl.org/dc/dcmitype/StillImage" />
        <dc:title></dc:title>
      </cc:Work>
    </rdf:RDF>
  </metadata>
  <g
     transform="translate(-64.946083,-320.38935)"
     id="layer1">
    <g
       id="text3336"
       style="font-style:normal;font-variant:normal;font-weight:normal;font-stretch:normal;font-size:40px;line-height:125%;font-family:'Permanent Marker';-inkscape-font-specification:'Permanent Marker';letter-spacing:0px;word-spacing:0px;fill:#333333;fill-opacity:1;stroke:none;stroke-width:1px;stroke-linecap:butt;stroke-linejoin:miter;stroke-opacity:1">
      <path
         id="path4177"
         style="fill:#333333"
         d="m 65.649208,355.5242 q -0.195312,0.0391 -0.351562,-0.27344 -0.15625,-0.35156 -0.351563,-0.66406 l 0.429688,0 q -0.273438,-0.85937 -0.15625,-1.5625 0.15625,-0.74219 0.351562,-1.40625 0.195313,-0.70312 0.3125,-1.32812 0.15625,-0.66407 -0.117187,-1.36719 0.195312,0.11719 0.273437,-0.0781 0.117188,-0.23437 0.15625,-0.54687 0.07813,-0.35156 0.03906,-0.70313 0,-0.39062 -0.03906,-0.625 0.507813,-1.21093 0.78125,-2.5 0.3125,-1.28906 0.546875,-2.53906 0.234375,-1.28906 0.507813,-2.46094 0.3125,-1.21093 0.78125,-2.26562 0.546875,-0.0781 1.132812,0.15625 0.625,0.19531 0.820313,0.50781 1.210937,-0.9375 2.148437,-2.26562 0.9375,-1.32813 1.875,-2.57813 0.976563,-1.28906 2.1875,-2.26562 1.210938,-0.97657 3.007813,-1.17188 0.9375,0.66406 2.109375,1.44531 1.171875,0.74219 1.914062,1.875 0.3125,0.19532 0.585938,0.42969 0.3125,0.19531 0.625,0.39063 l 0,0.58593 q 0.546875,0.50782 0.898437,1.21094 0.390625,0.66406 0.664063,1.44531 0.3125,0.74219 0.585937,1.52344 0.273438,0.78125 0.625,1.44531 -0.07813,0.23438 -0.07813,0.42969 0.03906,0.15625 0.07813,0.35156 0.07813,0.15625 0.117188,0.39063 0.03906,0.19531 0.03906,0.50781 -0.15625,2.07031 -1.367187,3.35938 -1.171875,1.25 -2.890625,2.07031 -1.679688,0.78125 -3.59375,1.36719 -1.914063,0.54687 -3.476563,1.21093 0,0.15625 0.15625,0.15625 0.195313,0 0.117188,0.23438 1.171875,0.70312 1.796875,1.13281 0.664062,0.42969 1.210937,0.74219 0.585938,0.27344 1.25,0.46875 0.703125,0.19531 1.914063,0.46875 1.210937,0.27344 1.875,0.46875 0.703125,0.15625 1.25,0.27344 0.546875,0.0781 1.171875,0.15625 0.625,0.0781 1.679687,0.19531 0.429688,0.42969 0.703125,1.01562 0.273438,0.58594 0.390625,1.17188 0.117188,0.58594 0.03906,1.13281 -0.03906,0.50781 -0.3125,0.82031 0.03906,0.15625 0.195312,0.15625 0.195313,-0.0391 0.390625,0 -0.273437,0.19532 -0.46875,0.46875 -0.195312,0.27344 -0.390625,0.54688 -0.195312,0.27344 -0.46875,0.50781 -0.234375,0.23438 -0.625,0.27344 -1.40625,0.54687 -3.59375,0.0391 -2.1875,-0.50781 -5.585937,-1.79687 -1.679688,-0.625 -2.734375,-1.13282 -1.054688,-0.50781 -1.835938,-0.97656 -0.78125,-0.50781 -1.445312,-1.05469 -0.664063,-0.58593 -1.523438,-1.36718 -0.117187,0.0391 -0.15625,0.15625 0,0.11718 -0.117187,0.15625 -0.195313,1.5625 -0.625,2.53906 -0.390625,0.97656 -1.171875,1.99219 -0.625,-0.11719 -0.859375,0.11718 -0.195313,0.23438 -0.507813,0.42969 -0.390625,0.0781 -0.585937,-0.0391 -0.195313,-0.0781 -0.351563,-0.19531 -0.15625,-0.11719 -0.351562,-0.23438 -0.195313,-0.11719 -0.625,-0.0781 -0.117188,-0.35157 -0.234375,-0.66407 -0.117188,-0.35156 -0.625,-0.3125 0.117187,-0.35156 0.07813,-0.58593 -0.03906,-0.27344 -0.117188,-0.46875 -0.07813,-0.23438 -0.15625,-0.46875 -0.03906,-0.23438 0.07813,-0.54688 z m 13.046875,-17.85156 q -0.507812,0.74219 -1.132812,1.36719 -0.625,0.58593 -1.25,1.25 -0.585938,0.625 -1.054688,1.40625 -0.46875,0.74218 -0.664062,1.79687 1.640625,-0.19531 3.4375,-0.89844 1.796875,-0.74218 3.398437,-1.40625 -0.195312,-1.44531 -1.015625,-2.30468 -0.820312,-0.89844 -1.71875,-1.21094 z"
         inkscape:connector-curvature="0" />
      <path
         id="path4179"
         style="fill:#333333"
         d="m 94.047646,355.48514 q -1.132813,-0.85938 -1.875,-2.14844 -0.703125,-1.28906 -1.132813,-2.73437 -0.390625,-1.44532 -0.546875,-2.96875 -0.117187,-1.5625 -0.07813,-2.96875 0.351563,-1.05469 0.859375,-1.91407 0.507813,-0.89843 1.132813,-1.67968 0.625,-0.82032 1.289062,-1.52344 0.703125,-0.74219 1.367188,-1.48438 0.234375,0 0.429687,0.11719 0.15625,-0.42969 0.46875,-0.74219 0.3125,-0.3125 0.664063,-0.54687 0.351562,-0.27344 0.703125,-0.50781 0.351562,-0.27344 0.585937,-0.625 0.976563,-0.23438 1.71875,-0.66407 0.781242,-0.42968 1.484372,-0.9375 0.70312,-0.50781 1.44532,-0.9375 0.74218,-0.42968 1.71875,-0.66406 0.35156,-0.39062 0.85938,-0.66406 0.54687,-0.27344 1.05468,-0.50781 0.54688,-0.23438 1.01563,-0.50782 0.50781,-0.27343 0.82031,-0.74218 0.23438,0.3125 0.66406,0.23437 0.42969,-0.11719 0.78125,-0.23437 0.23438,-0.0391 0.39063,0.0781 0.15625,0.11719 0.27344,0.27344 0.15625,0.11719 0.23437,0.15625 0.11719,0.0391 0.23438,-0.23438 0.3125,0.0391 0.15625,0.27344 -0.11719,0.23438 -0.15625,0.3125 0.39062,-0.0781 0.625,0.15625 0.27343,0.19531 0.82031,0.27344 0.19531,0.19531 0.11719,0.3125 -0.0781,0.11719 -0.11719,0.39062 1.40625,0.42969 1.79687,1.36719 0.39063,0.89844 0.0781,1.91406 -0.3125,0.97657 -1.17188,1.83594 -0.82031,0.82031 -1.83593,1.09375 -1.21094,0.3125 -2.26563,0.625 -1.01562,0.3125 -1.99219,0.70313 -0.9375,0.39062 -1.79687,0.9375 -0.82031,0.50781 -1.44531,1.21093 -1.09375,0.3125 -1.99219,0.85938 -0.85938,0.54687 -1.640632,1.21094 -0.742187,0.66406 -1.445312,1.40625 -0.703125,0.70312 -1.40625,1.40625 0,0.66406 -0.234375,1.01562 -0.234375,0.35156 -0.507813,0.70313 0.07813,0.74218 0.3125,1.28906 0.273438,0.50781 0.546875,1.05469 3.125007,0.9375 6.601567,1.17187 3.51563,0.19531 6.95313,0.23438 0.35156,0.46875 0.78125,0.89843 0.46875,0.39063 0.82031,0.82032 0.39062,0.42968 0.58594,1.01562 0.23437,0.54688 0.11718,1.32813 -0.66406,0.66406 -1.44531,1.28906 -0.78125,0.58594 -1.5625,1.17187 -0.35156,0.0391 -0.85937,0 -0.46875,-0.0391 -1.01563,-0.0391 -0.50781,0 -1.05469,0.0781 -0.50781,0.0391 -0.97656,0.23437 -2.46094,-0.0781 -5.03906,-0.58594 -2.578132,-0.54687 -4.765632,-1.28906 -0.429687,-0.50781 -0.898437,-0.9375 -0.46875,-0.46875 -1.25,-0.66406 z"
         inkscape:connector-curvature="0" />
    </g>
  </g>
</svg>
