<?xml version="1.0" encoding="UTF-8" standalone="no"?>
<svg
   xmlns:dc="http://purl.org/dc/elements/1.1/"
   xmlns:cc="http://creativecommons.org/ns#"
   xmlns:rdf="http://www.w3.org/1999/02/22-rdf-syntax-ns#"
   xmlns:svg="http://www.w3.org/2000/svg"
   xmlns="http://www.w3.org/2000/svg"
   version="1.1"
   id="svg2"
   viewBox="0 0 248.43751 30.791378"
   height="8.690011mm"
   width="70.114586mm">
  <defs
     id="defs4" />
  <metadata
     id="metadata7">
    <rdf:RDF>
      <cc:Work
         rdf:about="">
        <dc:format>image/svg+xml</dc:format>
        <dc:type
           rdf:resource="http://purl.org/dc/dcmitype/StillImage" />
        <dc:title></dc:title>
      </cc:Work>
    </rdf:RDF>
  </metadata>
  <g
     transform="translate(-64.946083,-329.50858)"
     id="layer1">
    <g
       id="text3336"
       style="font-style:normal;font-variant:normal;font-weight:normal;font-stretch:normal;font-size:40px;line-height:125%;font-family:'Permanent Marker';-inkscape-font-specification:'Permanent Marker';letter-spacing:0px;word-spacing:0px;fill:#162d50;fill-opacity:1;stroke:none;stroke-width:1px;stroke-linecap:butt;stroke-linejoin:miter;stroke-opacity:1">
      <path
         id="path4177"
         style=""
         d="m 65.649208,355.5242 q -0.195312,0.0391 -0.351562,-0.27344 -0.15625,-0.35156 -0.351563,-0.66406 l 0.429688,0 q -0.273438,-0.85937 -0.15625,-1.5625 0.15625,-0.74219 0.351562,-1.40625 0.195313,-0.70312 0.3125,-1.32812 0.15625,-0.66407 -0.117187,-1.36719 0.195312,0.11719 0.273437,-0.0781 0.117188,-0.23437 0.15625,-0.54687 0.07813,-0.35156 0.03906,-0.70313 0,-0.39062 -0.03906,-0.625 0.507813,-1.21093 0.78125,-2.5 0.3125,-1.28906 0.546875,-2.53906 0.234375,-1.28906 0.507813,-2.46094 0.3125,-1.21093 0.78125,-2.26562 0.546875,-0.0781 1.132812,0.15625 0.625,0.19531 0.820313,0.50781 1.210937,-0.9375 2.148437,-2.26562 0.9375,-1.32813 1.875,-2.57813 0.976563,-1.28906 2.1875,-2.26562 1.210938,-0.97657 3.007813,-1.17188 0.9375,0.66406 2.109375,1.44531 1.171875,0.74219 1.914062,1.875 0.3125,0.19532 0.585938,0.42969 0.3125,0.19531 0.625,0.39063 l 0,0.58593 q 0.546875,0.50782 0.898437,1.21094 0.390625,0.66406 0.664063,1.44531 0.3125,0.74219 0.585937,1.52344 0.273438,0.78125 0.625,1.44531 -0.07813,0.23438 -0.07813,0.42969 0.03906,0.15625 0.07813,0.35156 0.07813,0.15625 0.117188,0.39063 0.03906,0.19531 0.03906,0.50781 -0.15625,2.07031 -1.367187,3.35938 -1.171875,1.25 -2.890625,2.07031 -1.679688,0.78125 -3.59375,1.36719 -1.914063,0.54687 -3.476563,1.21093 0,0.15625 0.15625,0.15625 0.195313,0 0.117188,0.23438 1.171875,0.70312 1.796875,1.13281 0.664062,0.42969 1.210937,0.74219 0.585938,0.27344 1.25,0.46875 0.703125,0.19531 1.914063,0.46875 1.210937,0.27344 1.875,0.46875 0.703125,0.15625 1.25,0.27344 0.546875,0.0781 1.171875,0.15625 0.625,0.0781 1.679687,0.19531 0.429688,0.42969 0.703125,1.01562 0.273438,0.58594 0.390625,1.17188 0.117188,0.58594 0.03906,1.13281 -0.03906,0.50781 -0.3125,0.82031 0.03906,0.15625 0.195312,0.15625 0.195313,-0.0391 0.390625,0 -0.273437,0.19532 -0.46875,0.46875 -0.195312,0.27344 -0.390625,0.54688 -0.195312,0.27344 -0.46875,0.50781 -0.234375,0.23438 -0.625,0.27344 -1.40625,0.54687 -3.59375,0.0391 -2.1875,-0.50781 -5.585937,-1.79687 -1.679688,-0.625 -2.734375,-1.13282 -1.054688,-0.50781 -1.835938,-0.97656 -0.78125,-0.50781 -1.445312,-1.05469 -0.664063,-0.58593 -1.523438,-1.36718 -0.117187,0.0391 -0.15625,0.15625 0,0.11718 -0.117187,0.15625 -0.195313,1.5625 -0.625,2.53906 -0.390625,0.97656 -1.171875,1.99219 -0.625,-0.11719 -0.859375,0.11718 -0.195313,0.23438 -0.507813,0.42969 -0.390625,0.0781 -0.585937,-0.0391 -0.195313,-0.0781 -0.351563,-0.19531 -0.15625,-0.11719 -0.351562,-0.23438 -0.195313,-0.11719 -0.625,-0.0781 -0.117188,-0.35157 -0.234375,-0.66407 -0.117188,-0.35156 -0.625,-0.3125 0.117187,-0.35156 0.07813,-0.58593 -0.03906,-0.27344 -0.117188,-0.46875 -0.07813,-0.23438 -0.15625,-0.46875 -0.03906,-0.23438 0.07813,-0.54688 z m 13.046875,-17.85156 q -0.507812,0.74219 -1.132812,1.36719 -0.625,0.58593 -1.25,1.25 -0.585938,0.625 -1.054688,1.40625 -0.46875,0.74218 -0.664062,1.79687 1.640625,-0.19531 3.4375,-0.89844 1.796875,-0.74218 3.398437,-1.40625 -0.195312,-1.44531 -1.015625,-2.30468 -0.820312,-0.89844 -1.71875,-1.21094 z" />
      <path
         id="path4179"
         style=""
         d="m 94.047646,355.48514 q -1.132813,-0.85938 -1.875,-2.14844 -0.703125,-1.28906 -1.132813,-2.73437 -0.390625,-1.44532 -0.546875,-2.96875 -0.117187,-1.5625 -0.07813,-2.96875 0.351563,-1.05469 0.859375,-1.91407 0.507813,-0.89843 1.132813,-1.67968 0.625,-0.82032 1.289062,-1.52344 0.703125,-0.74219 1.367188,-1.48438 0.234375,0 0.429687,0.11719 0.15625,-0.42969 0.46875,-0.74219 0.3125,-0.3125 0.664063,-0.54687 0.351562,-0.27344 0.703125,-0.50781 0.351562,-0.27344 0.585937,-0.625 0.976563,-0.23438 1.71875,-0.66407 0.781247,-0.42968 1.484377,-0.9375 0.70312,-0.50781 1.44531,-0.9375 0.74219,-0.42968 1.71875,-0.66406 0.35156,-0.39062 0.85938,-0.66406 0.54687,-0.27344 1.05468,-0.50781 0.54688,-0.23438 1.01563,-0.50782 0.50781,-0.27343 0.82031,-0.74218 0.23438,0.3125 0.66406,0.23437 0.42969,-0.11719 0.78125,-0.23437 0.23438,-0.0391 0.39063,0.0781 0.15625,0.11719 0.27344,0.27344 0.15625,0.11719 0.23437,0.15625 0.11719,0.0391 0.23438,-0.23438 0.3125,0.0391 0.15625,0.27344 -0.11719,0.23438 -0.15625,0.3125 0.39062,-0.0781 0.625,0.15625 0.27343,0.19531 0.82031,0.27344 0.19531,0.19531 0.11719,0.3125 -0.0781,0.11719 -0.11719,0.39062 1.40625,0.42969 1.79687,1.36719 0.39063,0.89844 0.0781,1.91406 -0.3125,0.97657 -1.17188,1.83594 -0.82031,0.82031 -1.83593,1.09375 -1.21094,0.3125 -2.26563,0.625 -1.01562,0.3125 -1.99219,0.70313 -0.9375,0.39062 -1.79687,0.9375 -0.82031,0.50781 -1.44531,1.21093 -1.09375,0.3125 -1.99219,0.85938 -0.85938,0.54687 -1.640627,1.21094 -0.742187,0.66406 -1.445312,1.40625 -0.703125,0.70312 -1.40625,1.40625 0,0.66406 -0.234375,1.01562 -0.234375,0.35156 -0.507813,0.70313 0.07813,0.74218 0.3125,1.28906 0.273438,0.50781 0.546875,1.05469 3.125002,0.9375 6.601562,1.17187 3.51563,0.19531 6.95313,0.23438 0.35156,0.46875 0.78125,0.89843 0.46875,0.39063 0.82031,0.82032 0.39062,0.42968 0.58594,1.01562 0.23437,0.54688 0.11718,1.32813 -0.66406,0.66406 -1.44531,1.28906 -0.78125,0.58594 -1.5625,1.17187 -0.35156,0.0391 -0.85937,0 -0.46875,-0.0391 -1.01563,-0.0391 -0.50781,0 -1.05469,0.0781 -0.50781,0.0391 -0.97656,0.23437 -2.46094,-0.0781 -5.03906,-0.58594 -2.578127,-0.54687 -4.765627,-1.28906 -0.429687,-0.50781 -0.898437,-0.9375 -0.46875,-0.46875 -1.25,-0.66406 z" />
      <path
         id="path4181"
         style=""
         d="m 118.11015,340.01639 q -1.64063,-0.66406 -2.73438,-1.875 -1.05469,-1.21094 -1.71875,-2.85156 0.39063,-1.05469 1.25,-1.75782 0.85938,-0.74218 1.91406,-1.25 1.09375,-0.50781 2.30469,-0.82031 1.21094,-0.3125 2.34375,-0.54687 0.23438,0.0781 0.23438,0 0,-0.0781 0.19531,0.0781 1.40625,-0.42969 3.24219,-0.82031 1.83593,-0.42969 3.90625,-0.3125 0.27343,-0.15625 0.66406,-0.15625 0.39062,-0.0391 0.82031,-0.0391 0.42969,0 0.82031,0 0.39063,-0.0391 0.66407,-0.15625 0.23437,0.27343 0.70312,0.35156 0.46875,0.0391 0.97656,0.39062 0.15625,0.0391 0,-0.11718 -0.15625,-0.19532 0.0391,-0.27344 0.50781,0 0.89843,0.23437 0.39063,0.23438 0.70313,0.54688 0.35156,0.27344 0.625,0.50781 0.3125,0.23438 0.66406,0.23438 0.35156,0.42968 0.82031,0.82031 0.50782,0.35156 0.9375,0.74219 0.46875,0.39062 0.74219,0.85937 0.3125,0.46875 0.3125,1.05469 -0.0391,0.23437 0.15625,0.27344 0.19531,0.0391 0.27344,0.23437 0.0391,1.44531 -0.46875,2.5 -0.46875,1.05469 -1.21094,1.95313 -0.74219,0.85937 -1.60156,1.64062 -0.82031,0.78125 -1.52344,1.67969 0.46875,0.58594 1.05469,1.09375 0.625,0.46875 1.25,0.9375 0.625,0.46875 1.17187,1.01562 0.58594,0.50782 0.97657,1.17188 0.11718,0.23437 0.50781,0.3125 0.11719,0.46875 0.3125,0.97656 0.23437,0.46875 0.42969,0.9375 0.19531,0.42969 0.23437,0.78125 0.0391,0.35156 -0.19531,0.58594 0.27344,0.15625 0.3125,0.50781 0.0391,0.3125 0,0.50781 -0.85938,1.05469 -1.17188,1.48438 -0.3125,0.42969 -0.46875,0.625 -0.15625,0.19531 -0.3125,0.35156 -0.15625,0.15625 -0.70312,0.625 -2.07031,1.25 -4.33594,2.26563 -2.22656,0.97656 -4.64844,1.32812 -0.19531,0.27344 -0.58593,0.42969 -0.35157,0.19531 -0.82032,0.3125 -0.46875,0.11719 -1.01562,0.19531 -0.50781,0.0781 -0.9375,0.15625 -0.19531,-0.0781 -0.23438,-0.27344 0,-0.15625 -0.19531,-0.23437 -0.0391,0.46875 -0.42969,0.46875 -0.35156,0.0391 -0.89843,-0.15625 -0.54688,-0.19531 -1.13282,-0.54688 -0.58593,-0.35156 -1.01562,-0.66406 -0.19531,0.35156 -0.50781,0.74219 -0.27344,0.39062 -0.58594,0.54687 -0.54688,-0.0781 -0.82031,-0.11718 -0.23438,-0.0391 -0.46875,0.19531 -0.3125,-0.15625 -0.46875,-0.35156 -0.15625,-0.15625 -0.3125,-0.35157 -0.15625,-0.15625 -0.35157,-0.27343 -0.19531,-0.15625 -0.58593,-0.27344 0.0781,-0.19531 -0.11719,-0.58594 -0.19531,-0.42969 -0.54688,-0.50781 0.19532,-0.3125 -0.15625,-0.78125 -0.35156,-0.50781 -0.54687,-1.13281 0.0391,-0.27344 0.0391,-0.54688 0.0391,-0.3125 0.0781,-0.54687 0.0781,-0.27344 0.19531,-0.46875 0.11719,-0.19532 0.39062,-0.27344 -0.0391,-0.50781 -0.3125,-0.97656 0.35157,-0.27344 0.46875,-0.66407 0.11719,-0.42968 0.19532,-0.85937 0.11718,-0.42969 0.27343,-0.82031 0.15625,-0.42969 0.50782,-0.70313 -0.0781,-0.11719 -0.15625,-0.19531 -0.0781,-0.0781 -0.0781,-0.27344 0.58594,-0.97656 0.82031,-1.64062 0.23438,-0.70313 0.35157,-1.32813 0.15625,-0.66406 0.3125,-1.40625 0.15625,-0.74219 0.625,-1.875 -0.0391,-0.70312 0.15625,-1.25 0.19531,-0.54687 0.39062,-1.05469 0.23438,-0.54687 0.35156,-1.13281 0.11719,-0.58594 -0.0391,-1.36719 -0.66406,0.0781 -0.97656,0.46875 -0.27344,0.39063 -0.35156,1.05469 -0.35157,0.3125 -0.89844,0.3125 -0.54688,-0.0391 -0.97656,0.11719 z m 17.1875,7.53906 q -1.48438,-0.82031 -2.73438,-0.97656 -1.21094,-0.15625 -2.34375,0.0391 -1.09375,0.15625 -2.10937,0.46875 -1.01563,0.3125 -2.03125,0.46875 -0.50782,1.32813 -1.05469,2.92969 -0.54688,1.60156 -1.05469,3.125 1.40625,-0.19531 2.57813,-0.58594 1.17187,-0.39062 2.26562,-0.85937 1.09375,-0.50782 2.14844,-0.97657 1.05469,-0.50781 2.1875,-0.9375 0.11719,-0.46875 0.50781,-0.74218 0.39063,-0.27344 0.78125,-0.50782 0.39063,-0.27343 0.66406,-0.58593 0.27344,-0.3125 0.19532,-0.85938 z m -2.73438,-12.22656 q -2.42187,-0.0781 -4.76562,0.42969 -2.34375,0.50781 -3.94532,1.48437 0.78125,0.66406 1.60157,1.17188 0.85937,0.50781 1.28906,1.36718 1.875,-0.74218 3.28125,-1.875 1.40625,-1.17187 2.53906,-2.57812 z" />
      <path
         id="path4183"
         style=""
         d="m 164.63358,336.65701 q 0.0781,0.85938 0.27344,1.48438 0.19531,0.625 0.42969,1.21094 0.19531,0.54687 0.35156,1.09375 0.19531,0.50781 0.27344,1.25 -0.3125,1.01562 -0.46875,1.875 -0.11719,0.85937 -0.27344,1.79687 -0.625,1.36719 -1.21094,2.42188 -0.58593,1.05468 -0.9375,1.83593 -0.19531,0.19532 -0.35156,0.46875 -0.11719,0.23438 -0.27344,0.50782 -0.0781,0.11718 -0.19531,0.35156 -0.11719,0.23437 -0.19531,0.3125 l -0.78125,-0.27344 -0.15625,0.97656 -0.54688,0.15625 -0.39062,0.46875 q -0.74219,1.28907 -1.5625,2.1875 -0.82031,0.85938 -1.875,1.5625 -1.01563,0.66407 -2.34375,1.25 -1.28906,0.58594 -2.92969,1.28907 -0.66406,-0.0781 -1.17187,-0.0781 -0.46875,-0.0391 -0.89844,-0.0781 -0.74219,0 -1.83594,-0.11719 -0.11719,-0.3125 -0.35156,-0.42969 -0.23438,-0.11719 -0.42969,-0.11719 -0.66406,-0.3125 -1.01562,-0.89843 -0.3125,-0.625 -0.625,-1.32813 -0.19532,-0.42969 -0.39063,-0.78125 -0.19531,-0.39062 -0.42969,-0.78125 l 0.66407,-0.19531 -0.85938,-0.9375 q -0.0781,-0.11719 -0.19531,-0.19531 -0.11719,-0.11719 -0.19531,-0.23438 l -0.0391,-0.625 q -0.11718,-2.69531 -0.11718,-4.92187 0.0391,-2.26563 0.625,-4.02344 l 0,-0.42969 q 0.11718,-0.85937 0.23437,-1.40625 0.11719,-0.58594 0.19531,-1.09375 0.11719,-0.85937 0.35157,-1.60156 0.54687,-0.11719 0.82031,-0.42969 0.27344,-0.35156 0.46875,-0.625 0.54687,-0.0391 0.74219,0.15625 0.19531,0.19531 0.39062,0.625 0.19531,0.35156 0.46875,0.78125 0.3125,0.42969 0.89844,0.66406 0.0781,0.3125 0.19531,0.66407 0.15625,0.3125 0.3125,0.70312 0.3125,0.66406 0.54688,1.40625 0.27343,0.70313 0.3125,1.36719 -0.39063,0.74219 -0.625,1.71875 -0.19532,0.97656 -0.27344,1.99219 -0.0391,0.97656 0.0391,1.91406 0.11719,0.89844 0.35156,1.52344 l 0.23438,0.50781 0.66406,-0.0781 q 1.17188,-0.3125 2.10938,-0.66406 0.97656,-0.39062 1.79687,-0.89844 0.82031,-0.50781 1.5625,-1.17187 0.74219,-0.70313 1.5625,-1.60156 0.82031,-0.89844 1.40625,-2.03125 0.625,-1.17188 1.01563,-2.42188 0.42968,-1.25 0.625,-2.46094 0.23437,-1.25 0.3125,-2.34375 0.66406,-0.23437 0.66406,-0.9375 l -0.0781,-0.42968 q -0.15625,-0.23438 0,-0.54688 0.23438,-0.74219 1.09375,-1.13281 0.625,0.39062 1.09375,0.85937 0.50782,0.46875 0.9375,0.9375 z" />
      <path
         id="path4185"
         style=""
         d="m 173.30546,356.1492 q 0.19531,1.17188 -0.15625,1.83594 -0.3125,0.66406 -0.9375,0.97656 -0.58594,0.35156 -1.36719,0.39063 -0.78125,0.0391 -1.48437,-0.0781 -0.39063,-0.54687 -0.70313,-1.36719 -0.3125,-0.82031 -0.58594,-1.67968 -0.27343,-0.89844 -0.50781,-1.75782 -0.19531,-0.85937 -0.35156,-1.52343 0.19531,-0.46875 0.23437,-1.05469 0.0781,-0.625 0.0781,-1.25 0.0391,-0.625 0.0391,-1.25 0.0391,-0.66406 0.11719,-1.25 0.27344,-1.64063 0.78125,-3.125 0.54687,-1.48438 0.85937,-3.08594 0.0781,-0.35156 -0.0781,-0.66406 -0.11719,-0.3125 -0.0391,-0.58594 0.0391,-0.15625 0.23437,-0.19531 0.19531,-0.0781 0.23438,-0.27344 0.11718,-0.42969 0.0391,-0.70312 -0.0391,-0.27344 0.15625,-0.66407 0.19531,-0.3125 0.46875,-0.89843 0.3125,-0.625 0.23437,-1.28907 0.35157,-0.23437 0.66407,-0.54687 0.3125,-0.3125 0.625,-0.54688 0.35156,-0.27343 0.74218,-0.46875 0.42969,-0.19531 1.01563,-0.19531 0.3125,0.39063 0.39062,0.85938 0.11719,0.46875 0.19532,0.9375 0.11718,0.46875 0.3125,0.89843 0.19531,0.39063 0.66406,0.625 0,0.3125 0,0.78125 0,0.46875 0.0391,0.9375 0.0391,0.42969 0.15625,0.82032 0.15625,0.35156 0.46875,0.46875 -0.70312,1.875 -1.32812,3.71093 -0.58594,1.83594 -0.97657,3.71094 -0.39062,1.83594 -0.50781,3.71094 -0.0781,1.875 0.27344,3.78906 z" />
      <path
         id="path4187"
         style=""
         d="m 188.14921,358.45389 q -1.09375,0.35156 -2.38281,0.70312 -1.28907,0.35157 -2.57813,0.35157 -1.95312,0 -3.08594,-0.97657 -0.19531,-0.42968 -0.35156,-0.58593 -0.11719,-0.15625 -0.23437,-0.3125 -0.0781,-0.19532 -0.11719,-0.50782 -0.46875,-0.54687 -0.74219,-1.25 -0.27344,-0.74218 -0.39062,-1.48437 -0.0781,-0.78125 -0.0391,-1.5625 0.0781,-0.78125 0.27344,-1.48438 0.0781,-0.15625 0.0781,-0.3125 0.0391,-0.15625 0.0781,-0.35156 0.15625,-0.625 0.3125,-1.21094 0.19531,-0.58593 0.50781,-1.01562 -0.15625,-0.35156 0,-0.78125 0.15625,-0.42969 0.35157,-0.78125 0.54687,-1.48438 0.89843,-2.5 0.39063,-1.05469 0.78125,-2.07031 0.66407,-1.75782 1.25,-3.47657 0.58594,-1.71875 1.05469,-3.71093 0.3125,-0.19532 0.46875,-0.27344 0.23438,-0.0781 0.39063,-0.11719 0.70312,0.35156 1.64062,0.70313 0.9375,0.3125 1.5625,0.3125 0.3125,0.19531 0.39063,0.3125 0.0781,0.0781 0.15625,0.15625 0.42968,0.50781 0.74218,1.05468 0.3125,0.50782 0.19532,1.36719 -0.23438,0.35156 -0.35157,0.35156 -0.19531,0.78125 -0.42968,1.32813 -0.19532,0.54687 -0.42969,1.09375 -0.27344,0.58594 -0.50781,1.17187 -0.23438,0.58594 -0.39063,1.44532 -0.15625,0.19531 -0.23437,0.35156 -0.0391,0.15625 -0.11719,0.35156 -0.0781,0.19531 -0.19531,0.42969 -0.0781,0.19531 -0.27344,0.35156 -0.11719,1.01563 -0.39063,1.64063 -0.23437,0.625 -0.50781,1.25 -0.46875,1.13281 -0.85937,2.26562 -0.35157,1.13281 -0.42969,2.57813 0.19531,-0.0781 0.35156,-0.0781 0.19531,0 0.35156,0 0.35157,0 0.82032,0.11719 1.17187,-0.625 2.53906,-0.74219 1.40625,-0.11719 2.77344,-0.15625 0.54687,0 1.09375,0 0.54687,0 1.01562,-0.0781 0.35156,0.19531 0.42969,0.23437 0.11719,0 0.3125,0 0.27344,0 0.46875,0.0391 0.46875,0.42969 0.89844,0.625 0.42968,0.19532 0.89843,0.35157 0.42969,0.15625 0.82032,0.35156 0.42968,0.15625 0.82031,0.46875 l 0.27344,1.67969 q 0.27343,0.35156 0.23437,0.46875 0,0.3125 -0.15625,0.46875 l 0.0781,0.42968 q -0.58594,0.11719 -0.82032,0.27344 -0.19531,0.15625 -0.39062,0.35156 -0.3125,0.0391 -0.46875,0.0391 -0.11719,0 -0.23438,0 -0.54687,0 -1.32812,0.19531 -1.05469,-0.35156 -2.1875,-0.35156 -0.42969,0 -0.89844,0.0391 -0.46875,0.0391 -0.9375,0.0781 -0.46875,0.0781 -0.97656,0.11719 -0.46875,0.0391 -0.97656,0.0391 l -0.89844,0.23438 z" />
      <path
         style=""
         id="path4189"
         d="m 218.42265,348.3367 q -0.0391,0.19531 -0.0781,0.35156 -0.0391,0.11719 -0.0781,0.23438 -0.0391,0.11719 -0.0391,0.3125 0,0.15625 0,0.42969 -1.17187,2.07031 -2.96875,3.47656 -1.75781,1.40625 -3.90625,2.5 -2.10937,1.05469 -4.41406,1.95312 -2.30469,0.85938 -4.49219,1.875 -0.9375,-0.23437 -1.44531,-0.78125 -0.46875,-0.54687 -0.74219,-1.25 -0.23437,-0.74218 -0.35156,-1.60156 -0.0781,-0.89844 -0.15625,-1.83594 0.11719,-0.42968 0.3125,-0.70312 0.23438,-0.3125 0.23438,-0.85938 0.3125,-1.01562 0.625,-1.99218 0.3125,-0.97657 0.39062,-1.99219 0.11719,-0.3125 0.42969,-0.42969 0.19531,-1.875 0,-3.78906 -0.15625,-1.95313 -0.625,-3.63281 0.0391,-0.39063 0.0781,-0.54688 0.0781,-0.19531 0,-0.27344 -0.0391,-0.3125 0.19532,-0.3125 0.27343,0 0.54687,0 0,-0.58593 -0.23437,-1.17187 -0.19532,-0.58594 -0.39063,-1.32813 0.27344,-0.58593 0.35156,-1.13281 0.0781,-0.58594 0.35157,-1.01562 2.10937,0.66406 4.02343,1.60156 1.95313,0.9375 3.82813,1.36719 1.40625,1.01562 2.89062,2.03125 1.48438,0.97656 2.69532,2.1875 1.21093,1.17187 2.03125,2.69531 0.82031,1.52344 0.9375,3.63281 z m -9.25782,2.14844 q 0.82032,-0.3125 1.60157,-0.66406 0.82031,-0.35157 1.48437,-0.78125 0.70313,-0.46875 1.25,-1.05469 0.54688,-0.58594 0.89844,-1.40625 -0.23438,-0.46875 -0.625,-0.82031 -0.39063,-0.39063 -0.78125,-0.70313 -0.39063,-0.35156 -0.78125,-0.70312 -0.35156,-0.35157 -0.58594,-0.85938 -0.50781,-0.0781 -0.89844,-0.27344 -0.39062,-0.23437 -0.78125,-0.42968 -0.35156,-0.23438 -0.78125,-0.42969 -0.39062,-0.19531 -0.9375,-0.23438 -0.85937,-0.42968 -1.5625,-0.625 -0.66406,-0.19531 -1.01562,-0.50781 -0.27344,0 -0.42969,0.11719 0.39063,1.48437 0.58594,2.8125 0.19531,1.28906 0.19531,2.61719 0.0391,1.28906 -0.11719,2.65625 -0.15625,1.36718 -0.42968,2.96875 0.39062,-0.0391 0.70312,-0.15625 0.35156,-0.15625 0.66406,-0.3125 0.35157,-0.15625 0.70313,-0.27344 0.39062,-0.15625 0.89844,-0.19531 0.11718,-0.23438 0.3125,-0.39063 0.23437,-0.15625 0.42968,-0.35156 z" />
      <path
         id="path4191"
         style=""
         d="m 224.78983,354.23514 q 0.0781,0.3125 0.11719,0.58594 0.0391,0.27343 0.11719,0.58593 -0.15625,0.39063 -0.27344,0.78125 -0.11719,0.35157 -0.23437,0.70313 -0.11719,0.27344 -0.15625,0.35156 -0.0391,0.0781 -0.0391,0.11719 0,0.0391 0,0.11719 0.0391,0.0391 0.0391,0.3125 l -0.15625,0.46875 q -0.19532,0.27343 -0.46875,0.42968 -0.27344,0.15625 -0.54688,0.27344 -0.0781,0.0781 -0.23437,0.11719 -0.15625,0.0781 -0.23438,0.15625 l -0.11719,0.46875 -0.50781,0.0781 q -0.66406,0.15625 -1.13281,0.15625 l -0.46875,0 q -0.46875,-0.42968 -0.74219,-0.66406 -0.27344,-0.23437 -0.58594,-0.42969 -0.39062,-0.54687 -0.42968,-0.78125 -0.0391,-0.27343 -0.11719,-0.50781 -0.0781,-0.50781 -0.19531,-0.66406 l -0.54688,-0.54688 0.46875,-0.35156 -0.42969,-0.74219 q 0.46875,-0.35156 0.70313,-0.50781 0.23437,-0.15625 0.39062,-0.3125 0.15625,-0.19531 0.35157,-0.46875 0.19531,-0.27344 0.625,-0.89844 l 0.35156,-0.50781 0.50781,0.27344 q 0.15625,0.11719 0.66406,0.23437 0.54688,0.0781 0.9375,0.15625 0.66407,0.19532 1.25,0.3125 0.58594,0.0781 0.9375,0.39063 l 0.15625,0.3125 z" />
      <path
         id="path4193"
         style=""
         d="m 228.8914,359.35233 q -0.54688,-0.35157 -0.85938,-0.89844 -0.35156,-0.54688 -0.54687,-1.17188 -0.23438,-0.625 -0.35157,-1.28906 -0.15625,-0.70312 -0.3125,-1.32812 0,-0.54688 0.23438,-0.78125 0.23437,-0.27344 0.50781,-0.50782 0.9375,-0.0391 1.67969,-0.15625 0.74219,-0.11718 1.44531,-0.23437 0.70313,-0.11719 1.40625,-0.19531 0.70313,-0.11719 1.52344,-0.11719 0.58594,-1.21094 1.09375,-2.30469 0.50781,-1.13281 0.97656,-2.14844 0.23438,-0.97656 0.58594,-1.79687 0.39062,-0.85938 0.74219,-1.60156 0.35156,-0.78125 0.625,-1.52344 0.27343,-0.78125 0.35156,-1.64063 0.46875,-1.36718 0.82031,-2.5 0.39063,-1.17187 0.58594,-2.77343 -1.48438,0.23437 -2.38281,0.46875 -0.89844,0.19531 -1.28907,0.39062 -0.78125,-0.0391 -1.25,-0.3125 -0.42968,-0.27344 -0.70312,-0.66406 -0.27344,-0.39063 -0.46875,-0.89844 -0.19531,-0.50781 -0.46875,-1.05469 0.15625,-0.35156 0.0781,-1.01562 -0.0781,-0.70313 -0.46875,-1.01563 0.3125,-0.0781 0.46875,-0.50781 0.15625,-0.46875 0.0391,-0.70312 0.66406,-0.19532 1.40625,-0.23438 0.74218,-0.0781 1.44531,-0.11719 0.74219,-0.0781 1.40625,-0.15625 0.66406,-0.11718 1.13281,-0.42968 2.03125,-0.0781 4.21875,-0.15625 2.22656,-0.0781 4.10156,-0.19532 0.70313,0.23438 1.60157,0.23438 0.9375,0 1.83593,0.11719 0.9375,0.11718 1.64063,0.50781 0.74219,0.39062 1.01562,1.36719 0.58594,0.0781 0.85938,0.3125 0.3125,0.23437 0.39062,0.58593 0.0781,0.3125 0.0391,0.74219 0,0.39063 0,0.78125 -0.625,0.46875 -1.60157,0.78125 -0.9375,0.27344 -2.07031,0.46875 -1.13281,0.15625 -2.38281,0.23438 -1.21094,0.0391 -2.38281,0.0781 -0.19532,1.28906 -0.70313,3.04688 -0.46875,1.71875 -0.97656,3.39843 -0.50781,1.64063 -0.89844,2.96875 -0.35156,1.28907 -0.3125,1.67969 -0.39062,0.89844 -0.66406,1.52344 -0.23438,0.625 -0.46875,1.17187 -0.19531,0.54688 -0.42969,1.09375 -0.19531,0.50782 -0.50781,1.17188 l 2.65625,0 q 0.0781,0.42969 0.35156,0.58594 0.27344,0.15625 0.58594,0.27343 0.3125,0.11719 0.54687,0.3125 0.27344,0.15625 0.27344,0.54688 0.74219,0.19531 0.9375,0.58594 0.19531,0.39062 0.0781,0.85937 -0.0781,0.42969 -0.39063,0.89844 -0.27344,0.46875 -0.54687,0.82031 -0.35157,-0.0781 -0.66407,0.19531 -0.3125,0.23438 -0.58593,0.54688 -1.13282,-0.15625 -2.22657,-0.0391 -1.09375,0.11718 -2.03125,0.19531 -0.19531,0.0391 -0.15625,0.23437 0.0391,0.15625 -0.0781,0.23438 -1.21094,-0.39063 -2.5,-0.3125 -1.25,0.0781 -2.57813,0.39062 -1.28906,0.27344 -2.65625,0.58594 -1.36718,0.35156 -2.77343,0.39063 z" />
      <path
         id="path4195"
         style=""
         d="m 256.86015,351.7742 q -0.35157,0.0781 -0.50782,0.42969 -0.15625,0.3125 -0.3125,0.66406 -0.11718,0.35156 -0.27343,0.66406 -0.11719,0.27344 -0.39063,0.27344 -0.0391,0.3125 -0.23437,0.54688 -0.15625,0.23437 -0.3125,0.50781 -0.15625,0.23437 -0.23438,0.54687 -0.0781,0.27344 0.0781,0.66407 -0.3125,0.23437 -0.39063,0.66406 -0.0781,0.42969 -0.19531,0.82031 -0.0781,0.39063 -0.3125,0.66406 -0.23438,0.27344 -0.85938,0.23438 -0.11718,0.15625 -0.0391,0.19531 0.0781,0.0391 0.11719,0.27344 -0.42969,-0.0781 -0.66406,0.0391 -0.19532,0.15625 -0.50782,0.19531 -0.74218,-0.23437 -1.25,-0.82031 -0.46875,-0.58594 -0.85937,-1.28906 -0.35156,-0.74219 -0.66406,-1.48438 -0.27344,-0.74218 -0.54688,-1.28906 0.11719,-0.42969 0.0391,-0.82031 -0.0781,-0.42969 -0.27343,-0.70313 1.91406,-4.0625 4.17968,-8.67187 2.26563,-4.60938 4.29688,-9.10156 0.89844,0.35156 1.75781,0.82031 0.89844,0.42969 1.60156,1.01562 0.74219,0.58594 1.25,1.36719 0.50782,0.74219 0.66407,1.67969 -0.0781,0.23437 -0.19532,0.19531 -0.0781,-0.0781 -0.15625,0.0391 0.15625,0.19532 0.15625,0.27344 0.0391,0.0781 0,0.15625 0,0.0781 0,0.23438 0,0.11718 0.11719,0.35156 -0.15625,-0.0391 -0.23437,0.0391 -0.0391,0.0781 -0.23438,0 0.15625,0.42969 0.0781,0.70313 -0.0391,0.27343 -0.15625,0.50781 -0.11719,0.19531 -0.19532,0.46875 -0.0781,0.23437 0.0391,0.625 -0.11719,0 -0.19532,0.0781 -0.0391,0.0391 -0.0781,0.11719 -0.0391,0.0391 -0.11719,0.11719 -0.0391,0.0391 -0.15625,0 0.11719,0.85937 0.0781,1.71875 -0.0391,0.85937 -0.0781,1.75781 0,0.85938 0.0391,1.83594 0.0391,0.9375 0.27344,1.95312 1.40625,-0.82031 2.22656,-2.10937 0.85938,-1.28906 1.36719,-2.89063 0.54688,-1.60156 0.82031,-3.4375 0.27344,-1.83593 0.58594,-3.75 0.35156,-0.35156 0.54688,-0.85937 0.19531,-0.50781 0.35156,-1.05469 0.15625,-0.58594 0.3125,-1.13281 0.15625,-0.58594 0.39062,-1.05469 0.58594,0.0781 0.97657,0.39063 0.42968,0.27343 0.78125,0.625 0.35156,0.3125 0.74218,0.625 0.39063,0.27343 0.97657,0.35156 0.46875,0.66406 0.85937,1.28906 0.39063,0.625 0.50781,1.32813 -0.19531,0.3125 -0.3125,0.70312 -0.0781,0.39063 -0.19531,0.78125 -0.11719,0.39063 -0.3125,0.74219 -0.19531,0.3125 -0.54687,0.54687 -0.11719,1.01563 -0.3125,1.875 -0.15625,0.82032 -0.35157,1.64063 -0.15625,0.82031 -0.27343,1.71875 -0.11719,0.85937 -0.0781,1.91406 -0.3125,0.89844 -0.66406,1.91406 -0.35156,1.01563 -0.54688,1.83594 -0.625,0.50781 -0.97656,1.21094 -0.35156,0.70312 -0.74219,1.40625 -0.15625,0.15625 -0.19531,0.0781 -0.0391,-0.0781 -0.27344,-0.11718 0.0391,0.15625 0,0.23437 -0.0391,0.0781 -0.11718,0.15625 -0.0391,0.0391 -0.0781,0.15625 0,0.11719 0.0781,0.3125 -0.54688,0.23438 -0.97657,0.66406 -0.42968,0.42969 -0.9375,0.78125 -0.46875,0.35157 -1.17187,0.46875 -0.66406,0.11719 -1.75781,-0.27343 -1.60157,-1.17188 -2.85157,-2.69532 -1.21093,-1.52343 -1.99218,-3.63281 z" />
      <path
         id="path4197"
         style=""
         d="m 276.89921,357.55545 q -0.23438,1.32813 -1.32813,1.83594 -0.50781,0.0391 -0.78125,-0.0391 -0.23437,-0.0781 -0.50781,-0.19532 -0.35156,-0.15625 -0.625,-0.19531 l -0.42969,-0.3125 q -0.0781,-0.19531 -0.19531,-0.39062 -0.11719,-0.19532 -0.27344,-0.39063 -0.3125,-0.39062 -0.625,-0.97656 -0.23437,-1.13281 -0.0781,-1.875 0.15625,-0.78125 0.39062,-1.52344 0.0781,-0.23437 0.15625,-0.46875 0.0781,-0.27344 0.15625,-0.50781 -1.01562,-0.54688 -1.52343,-1.5625 -0.50782,-1.01563 -0.58594,-1.95313 0.11719,-0.74218 0.42969,-1.17187 0.3125,-0.46875 0.70312,-0.74219 0.42969,-0.27344 0.85938,-0.42969 0.46875,-0.15625 0.89843,-0.27343 l 0.50782,0.19531 q 0.35156,0.35156 0.70312,0.54687 0.27344,-0.11718 0.35156,-0.35156 0.11719,-0.27344 0.19532,-0.58594 0.11718,-0.35156 0.23437,-0.70312 0.15625,-0.35156 0.35156,-0.70313 -0.0391,-0.50781 0.15625,-0.9375 -0.27343,-0.19531 -0.58593,-0.23437 -0.0781,0 -0.39063,-0.0781 -0.46875,-0.35156 -0.66406,-0.58593 -0.15625,-0.27344 -0.3125,-0.50782 -0.23438,-0.50781 -0.58594,-0.82031 l -0.39062,-0.27344 0.19531,-0.39062 q 0.0781,-0.0781 0.0781,-0.19531 0,-0.11719 -0.15625,-0.35157 -0.0781,-0.42968 0,-0.58593 l 0.0781,-0.39063 q 0.3125,-0.42969 0.3125,-0.46875 l 0.35156,-0.35156 q 0.78125,-0.19531 1.52344,-0.42969 0.78125,-0.27344 1.5625,-0.54687 0.74219,-0.23438 1.48437,-0.46875 0.78125,-0.27344 1.5625,-0.46875 0.27344,-0.19532 0.58594,-0.23438 0.3125,-0.0781 0.58594,-0.11719 0.23437,-0.0391 0.42969,-0.0391 0.19531,-0.0391 0.27343,-0.15625 0.46875,-0.15625 1.09375,-0.35156 0.97657,-0.27344 2.57813,-0.58594 1.60156,-0.35156 3.59375,-0.54687 l 0.66406,-0.0391 q 0.19531,0.0391 0.39063,0.0391 0.19531,-0.0391 0.39062,-0.0391 1.75781,0 2.22656,1.05469 0.35157,0.19531 0.625,0.42969 0.27344,0.23437 0.50782,0.46875 0.11718,0.15625 0.23437,0.27344 0.15625,0.11718 0.23438,0.15625 0.66406,1.01562 0.42968,1.79687 -0.35156,0.50781 -0.89843,0.58594 l -0.42969,0.23437 q -0.42969,-0.0391 -0.66406,-0.0391 -0.19532,0 -0.42969,0 -0.97656,0 -2.26563,0.11719 -1.28906,0.11719 -2.65625,0.35156 -1.32812,0.19531 -2.57812,0.50781 -1.25,0.3125 -2.1875,0.66407 l -0.70313,0.35156 q -0.27343,0.42969 -0.3125,0.70312 -0.0391,0.23438 -0.0781,0.46875 -0.0391,0.15625 -0.0781,0.3125 0,0.15625 -0.0391,0.35157 -0.66406,0.82031 -0.66406,1.95312 -0.27344,0.46875 -0.35156,0.70313 -0.0781,0.19531 0,0.50781 0.74218,0.3125 1.40625,0.23437 0.66406,-0.0781 1.32812,-0.19531 0.89844,-0.15625 1.83594,-0.27344 0.97656,-0.11718 1.99219,-0.11718 l 1.25,0 -0.3125,0.3125 0.19531,0.54687 q 0.23437,0.11719 0.3125,0.15625 0.11719,0.0391 0.23437,0.11719 l 0.19532,0.35156 q 0.15625,0.0781 0.27343,0.27344 0.15625,0.19531 0.19532,0.58594 l -1.60157,2.26562 -0.54687,0.15625 q -0.66406,-0.0391 -1.17188,0.15625 -0.27343,0.0781 -0.54687,0.15625 -0.27344,0.0391 -0.58594,0.0391 -0.78125,0.15625 -1.32812,0.23438 -0.50782,0.0781 -1.05469,0.15625 -0.70313,0.0781 -1.36719,0.23437 -0.66406,0.11719 -1.25,0.35157 -0.39062,0 -0.54687,0 -0.3125,0 -0.66407,0.11718 -0.3125,0.0781 -0.58593,0.15625 -0.19532,0.15625 -0.27344,0.35157 -0.0781,0.15625 -0.15625,0.35156 -0.15625,0.54687 -0.42969,0.89844 l 0,0.58593 q -0.3125,0.39063 -0.39062,0.625 -0.0391,0.19532 -0.11719,0.39063 -0.0781,0.11719 -0.11719,0.23437 -0.0391,0.0781 -0.0391,0.19532 0.3125,0.58593 0.15625,1.32812 z" />
      <path
         id="path4199"
         style=""
         d="m 312.40702,347.16483 q -0.0391,0.46875 0.0781,0.89843 0.11718,0.42969 0.27343,0.85938 0.19532,0.39062 0.35157,0.82031 0.15625,0.42969 0.23437,0.85938 0.0781,0.54687 0,1.21093 -0.0781,0.625 -0.27344,1.25 -0.19531,0.58594 -0.50781,1.09375 -0.3125,0.46875 -0.74219,0.70313 -0.54687,0.70312 -1.32812,1.09375 -0.78125,0.39062 -1.44531,0.9375 -0.42969,0.27344 -0.97657,0.39062 -0.50781,0.11719 -1.05468,0.23438 -0.42969,0.23437 -1.01563,0.50781 -0.58594,0.23438 -1.21094,0.46875 -0.625,0.19531 -1.25,0.3125 -0.625,0.0781 -1.09375,0.0391 -1.17187,0.42969 -2.30468,0.54688 -1.09375,0.15625 -2.57813,-0.15625 -1.40625,0.19531 -2.61719,-0.11719 -1.17187,-0.3125 -2.10937,-0.97656 -0.89844,-0.70313 -1.60156,-1.64063 -0.66407,-0.97656 -1.09375,-2.03125 -0.3125,-2.22656 0.15625,-4.02343 0.46875,-1.83594 1.32812,-3.35938 0.89844,-1.5625 2.03125,-2.85156 1.13281,-1.32813 2.1875,-2.57813 0.23438,0.0781 0.35156,0 0.15625,-0.11718 0.27344,-0.27343 0.11719,-0.19532 0.23438,-0.35157 0.15625,-0.15625 0.35156,-0.19531 0.27344,-0.58594 0.78125,-0.85937 0.54687,-0.3125 0.85937,-0.85938 0.35157,-0.0781 0.58594,-0.23437 0.23438,-0.15625 0.42969,-0.35157 0.23437,-0.19531 0.46875,-0.35156 0.23437,-0.19531 0.54687,-0.27344 l 0,-0.42968 q 0.70313,-0.3125 1.01563,-0.70313 0.35156,-0.42969 0.82031,-1.01562 0.35156,-0.0391 0.54688,-0.0391 0.23437,0 0.66406,-0.0781 0.3125,-0.54688 0.54687,-0.82031 0.27344,-0.27344 0.78125,-0.58594 0.46875,0.23437 1.01563,0.3125 0.58594,0.0781 1.01562,0.50781 0.0391,0.39063 0.23438,0.625 0.19531,0.19531 0.42969,0.39063 0.23437,0.15625 0.42968,0.35156 0.23438,0.19531 0.3125,0.54687 0.15625,0.0391 0.19532,-0.0391 0.0781,-0.0781 0.23437,-0.0391 0.11719,0.54687 0.27344,0.74219 0.15625,0.15625 0.3125,0.66406 -0.19531,0.39062 -0.3125,0.82031 -0.0781,0.39063 -0.46875,0.58594 -0.0391,0.27344 0.15625,0.3125 0.19531,0 0.23437,0.19531 0.0391,0.35156 -0.11718,0.50781 0.9375,1.52344 1.67968,3.24219 0.74219,1.67969 1.67969,3.20313 z m -4.88281,3.71093 q 0.15625,-0.42968 0.39062,-0.70312 0.27344,-0.27344 0.3125,-0.82031 -0.19531,-0.3125 -0.23437,-0.46875 -0.0391,-0.19532 -0.0391,-0.58594 -0.85938,-1.21094 -1.48438,-2.57813 -0.625,-1.40625 -1.40625,-2.61718 -0.0781,0.15625 -0.27344,0.3125 -0.19531,0.15625 -0.42968,-0.0781 -0.0781,0.3125 -0.27344,0.46875 -0.19531,0.11719 -0.42969,0.11719 -0.23437,-0.0391 -0.50781,-0.11719 -0.23438,-0.11719 -0.42969,-0.27344 -1.13281,0.89844 -2.26562,1.75782 -1.13282,0.85937 -2.03125,1.99218 -0.15625,0.0781 -0.19532,0.0781 -0.0391,-0.0391 -0.23437,0.0391 -0.3125,0.74219 -0.78125,1.36719 -0.42969,0.58594 -0.85938,1.21094 -0.42968,0.625 -0.74218,1.32812 -0.3125,0.70313 -0.35157,1.64063 0.66407,0.54687 1.5625,0.66406 0.89844,0.11719 1.83594,0.0391 0.97656,-0.0781 1.875,-0.23437 0.9375,-0.19532 1.71875,-0.19532 1.64063,-0.39062 2.8125,-1.01562 1.17188,-0.66406 2.46094,-1.32813 z" />
    </g>
  </g>
</svg>
